HIERARCHY
ROOT Hips
{
	OFFSET -3.958830 18.904000 13.208200
	CHANNELS 6 Xposition Yposition Zposition Zrotation Yrotation Xrotation 
	JOINT LHipJoint
	{
		OFFSET 0.000000 0.000000 0.000000
		CHANNELS 3 Zrotation Yrotation Xrotation
		JOINT LeftUpLeg
		{
			OFFSET 1.800000 -1.400000 0.085000
			CHANNELS 3 Zrotation Yrotation Xrotation
			JOINT LeftLeg
			{
				OFFSET 2.215000 -6.000000 0.000000
				CHANNELS 3 Zrotation Yrotation Xrotation
				JOINT LeftFoot
				{
					OFFSET 2.500000 -6.900000 0.000000
					CHANNELS 3 Zrotation Yrotation Xrotation
					JOINT LeftToeBase
					{
						OFFSET 0.200000 -0.500000 1.950000
						CHANNELS 3 Zrotation Yrotation Xrotation
						End Site
						{
							OFFSET 0.000000 0.000000 0.000000
						}
					}
				}
			}
		}
	}
	JOINT RHipJoint
	{
		OFFSET 0.000000 0.000000 0.000000
		CHANNELS 3 Zrotation Yrotation Xrotation
		JOINT RightUpLeg
		{
			OFFSET -1.800000 -1.400000 0.085000
			CHANNELS 3 Zrotation Yrotation Xrotation
			JOINT RightLeg
			{
				OFFSET -2.215000 -6.000000 0.000000
				CHANNELS 3 Zrotation Yrotation Xrotation
				JOINT RightFoot
				{
					OFFSET -2.500000 -6.900000 0.000000
					CHANNELS 3 Zrotation Yrotation Xrotation
					JOINT RightToeBase
					{
						OFFSET -0.200000 -0.500000 1.950000
						CHANNELS 3 Zrotation Yrotation Xrotation
						End Site
						{
							OFFSET 0.000000 0.000000 0.000000
						}
					}
				}
			}
		}
	}
	JOINT LowerBack
	{
		OFFSET 0.000000 0.000000 0.000000
		CHANNELS 3 Zrotation Yrotation Xrotation
		JOINT Spine
		{
			OFFSET -0.087000 1.940000 -0.288900
			CHANNELS 3 Zrotation Yrotation Xrotation
			JOINT Spine1
			{
				OFFSET 0.000000 1.950000 0.060000
				CHANNELS 3 Zrotation Yrotation Xrotation
				JOINT Neck
				{
					OFFSET 0.000000 0.000000 0.000000
					CHANNELS 3 Zrotation Yrotation Xrotation
					JOINT Neck1
					{
						OFFSET 0.000000 1.600000 0.340000
						CHANNELS 3 Zrotation Yrotation Xrotation
						JOINT Head
						{
							OFFSET 0.000000 1.667000 -0.240000
							CHANNELS 3 Zrotation Yrotation Xrotation
							End Site
							{
								OFFSET 0.000000 0.000000 0.000000
							}
						}
					}
				}
				JOINT LeftShoulder
				{
					OFFSET 0.000000 0.000000 0.000000
					CHANNELS 3 Zrotation Yrotation Xrotation
					JOINT LeftArm
					{
						OFFSET 2.700000 1.550000 -0.730000
						CHANNELS 3 Zrotation Yrotation Xrotation
						JOINT LeftForeArm
						{
							OFFSET 5.450000 0.000000 0.000000
							CHANNELS 3 Zrotation Yrotation Xrotation
							JOINT LeftHand
							{
								OFFSET 3.450000 0.000000 0.000000
								CHANNELS 3 Zrotation Yrotation Xrotation
								JOINT LeftHandIndex1
								{
									OFFSET 0.750000 0.000000 0.000000
									CHANNELS 3 Zrotation Yrotation Xrotation
									End Site
									{
										OFFSET 0.000000 0.000000 0.000000
									}
								}
							}
						}
					}
				}
				JOINT RightShoulder
				{
					OFFSET 0.000000 0.000000 0.000000
					CHANNELS 3 Zrotation Yrotation Xrotation
					JOINT RightArm
					{
						OFFSET -2.700000 1.550000 -0.730000
						CHANNELS 3 Zrotation Yrotation Xrotation
						JOINT RightForeArm
						{
							OFFSET -5.450000 0.000000 0.000000
							CHANNELS 3 Zrotation Yrotation Xrotation
							JOINT RightHand
							{
								OFFSET -3.450000 0.000000 0.000000
								CHANNELS 3 Zrotation Yrotation Xrotation
								JOINT RightHandIndex1
								{
									OFFSET -0.750000 0.000000 0.000000
									CHANNELS 3 Zrotation Yrotation Xrotation
									End Site
									{
										OFFSET 0.000000 0.000000 0.000000
									}
								}
							}
						}
					}
				}
			}
		}
	}
}
MOTION
Frames: 10
Frame Time: 0.016667
-0.387160 17.761810 0.509250 -8.158469 10.351616 -7.869466 -15.396336 14.176373 2.431510 13.733415 0.642313 -12.542542 -4.121470 6.287387 14.536887 -0.446234 5.233128 3.286024 -0.603300 -0.856840 -1.149440 17.941817 -10.599153 2.868902 -4.779890 -0.037416 -0.950766 9.609871 -5.666812 10.295815 0.120822 -4.699320 3.119810 -0.132150 1.613170 -0.101700 -2.904790 -3.627549 -7.045997 -6.244522 -6.482230 21.824793 -30.665920 -1.086492 9.882364 18.996540 -16.120263 -17.409803 -26.932431 -1.953934 12.005670 12.603660 -17.682470 -1.413790 -1.051136 12.946975 -8.824142 -53.338893 -14.656969 1.033921 1.222132 -11.162864 -1.481146 -4.475231 2.676101 0.012920 0.572890 -0.973640 0.395090 -32.496177 10.647400 26.495660 -21.174995 5.112123 11.927737 46.832936 -52.330149 -164.359045 6.540507 -6.338245 -0.765380 0.938150 0.765270 0.362600 
-0.387550 17.755320 0.504050 -8.137535 10.627143 -7.547025 -15.364993 14.114214 2.397900 13.546813 0.592348 -13.050238 -4.027253 6.264892 14.758667 -0.450160 5.184752 3.289144 -0.593470 -0.840250 -1.156950 17.983832 -10.635339 2.853915 -4.885707 0.034289 -1.403568 9.775666 -5.670979 10.438076 0.129054 -4.696157 3.105846 -0.120710 1.606680 -0.098900 -2.996108 -3.486905 -7.011888 -6.045930 -6.923507 21.573367 -31.428820 -1.166320 9.963635 18.949975 -16.332123 -17.237436 -26.682881 -2.305581 11.426044 12.949020 -18.050030 -1.788800 -0.042402 13.739858 -8.795765 -54.174822 -14.882410 1.130027 1.596733 -11.518774 -1.574268 -4.467805 2.709430 -0.001010 0.565630 -0.975510 0.396470 -33.445368 10.188122 25.829247 -20.636365 6.137184 14.444161 44.028070 -48.245208 -166.873105 6.830087 -6.660872 -0.752700 0.927910 0.764600 0.372200 
-0.386960 17.754500 0.487360 -8.176927 10.995353 -7.738122 -15.274198 13.924752 2.244753 13.399466 0.696641 -13.174309 -3.799773 6.274432 15.263282 -0.427955 5.124039 3.296974 -0.551380 -0.781060 -1.135020 18.118638 -10.748788 2.820320 -5.226339 0.067821 -1.403012 10.082739 -5.761429 10.641101 0.096984 -4.780552 3.056352 -0.096090 1.572750 -0.099390 -3.264956 -3.021203 -6.867380 -5.311599 -7.760388 21.598082 -32.939824 -0.848868 10.891052 19.218383 -17.179809 -17.270116 -26.974674 -2.932202 10.459248 13.096390 -18.378970 -2.578820 1.838847 13.860280 -8.202178 -55.462506 -15.453534 1.152686 2.435787 -12.300263 -1.755240 -4.420377 2.765865 -0.013570 0.540670 -0.955570 0.405090 -35.804962 10.400177 23.940540 -18.463410 6.929721 17.529447 38.837336 -42.733262 -171.015939 10.106949 -6.852681 -0.721100 0.913950 0.734390 0.382640 
-0.384750 17.740970 0.466010 -8.561489 12.576753 -7.743807 -14.956826 12.819407 1.786035 13.229319 0.651329 -13.183893 -3.678265 6.130804 15.938011 -0.511578 4.938680 3.361468 -0.511200 -0.748270 -1.117550 18.544141 -11.629144 2.874342 -5.691211 0.080305 -2.099181 10.593074 -6.066620 10.813201 0.003313 -5.097326 2.941697 -0.068610 1.592280 -0.075450 -4.291203 0.472522 -6.701048 -1.027085 -5.180331 21.023137 -32.674055 5.349777 12.304582 18.781464 -19.883279 -15.734420 -27.117328 -3.210626 13.059620 13.097580 -18.239050 -3.145020 3.691254 1.972244 -2.926717 -54.696579 -16.969042 0.686126 2.521283 -13.861306 -1.990701 -4.360073 2.850878 -0.014870 0.553010 -0.955800 0.429080 -37.085377 20.591338 4.120725 -8.104315 -2.180838 -11.709628 -29.413771 -39.228125 3.002812 22.023079 2.214996 -0.715200 0.925870 0.723120 0.387800 
-0.389480 17.717760 0.458810 -8.701988 12.524902 -7.459613 -14.973995 13.070889 1.964551 13.599409 0.744375 -14.407285 -3.899509 6.380202 16.679761 -0.522026 5.021741 3.302369 -0.468250 -0.724830 -1.029140 18.431812 -11.557449 2.949735 -5.442742 0.391836 -2.639031 10.749830 -6.051205 11.367740 -0.001273 -4.971009 2.967968 -0.068830 1.526440 -0.047510 -4.113472 0.025614 -7.152149 -1.233775 -5.401446 21.142280 -33.583058 5.672298 13.045053 18.907536 -18.880353 -16.432639 -25.718031 -2.425252 14.302572 12.627530 -17.143670 -3.494100 2.486310 2.136548 -3.301505 -51.788308 -16.129801 -0.181708 2.262044 -15.198855 -2.086596 -4.328588 2.819160 0.046580 0.528300 -0.893070 0.408560 -36.025186 21.549254 2.589709 -10.571723 -2.409424 -9.538330 -21.727662 -31.289230 1.121744 13.960672 0.751209 -0.701460 0.900880 0.697060 0.344280 
-0.397320 17.700380 0.440110 -8.772754 12.183597 -7.838755 -15.059867 13.324535 2.037720 14.075540 1.106073 -14.975472 -3.961284 6.714523 17.546787 -0.555828 5.204954 3.203108 -0.453390 -0.697740 -0.995780 18.310648 -11.384973 2.942556 -5.445058 0.636548 -2.438685 10.935923 -6.091785 11.964619 0.003856 -4.955125 2.957697 -0.032090 1.506670 -0.049670 -3.839986 -0.482190 -7.384125 -2.181105 -5.622705 21.641096 -33.605960 5.970828 13.769742 19.094753 -18.225865 -16.419420 -24.990968 -1.215255 14.559900 12.183270 -15.862490 -4.171150 1.385430 2.745326 -3.687366 -50.064258 -15.521906 -0.839735 2.566820 -16.432751 -2.291841 -4.332289 2.781216 0.076050 0.528580 -0.872030 0.382710 -35.382432 23.118607 1.044358 -13.334543 -1.779627 -9.081349 -17.821771 -24.047898 -0.016951 7.470280 0.066156 -0.722820 0.923280 0.709570 0.315600 
-0.399600 17.687460 0.421850 -8.958388 11.622520 -8.313486 -15.124142 13.451822 2.023632 14.580587 1.537856 -15.459257 -3.815530 7.049795 18.668879 -0.586779 5.395205 3.102490 -0.396960 -0.647970 -0.925930 18.253602 -11.257914 2.903829 -5.561293 0.894558 -2.204555 11.249703 -6.189893 12.609945 -0.027131 -4.991736 2.923023 0.006830 1.475150 -0.029260 -3.672640 -0.766118 -7.447646 -2.415741 -5.619934 21.310710 -33.736085 6.363786 15.073437 19.190461 -17.654567 -16.164099 -24.511369 -0.133001 15.016276 11.775790 -14.755810 -4.943500 -0.022777 2.124870 -3.504143 -47.832210 -14.762353 -1.333782 3.115159 -16.870455 -2.448023 -4.321809 2.767728 0.116750 0.520940 -0.836770 0.374640 -34.324021 25.126782 0.143301 -16.435283 -0.181026 -5.522854 -15.130080 -19.804665 -0.561205 5.123642 -0.084273 -0.724510 0.928210 0.694670 0.284440 
-0.390420 17.661730 0.409610 -9.054389 11.174103 -8.460738 -15.169878 13.502202 1.999324 14.721193 1.880360 -16.282227 -3.382340 7.337150 20.127545 -0.636747 5.533150 2.986780 -0.365420 -0.608420 -0.854060 18.212578 -11.210178 2.881394 -6.173552 1.280355 -2.321299 12.039683 -6.389390 13.360280 -0.053086 -5.053976 2.848589 0.042980 1.411510 -0.019430 -3.563984 -0.818154 -7.459615 -2.017311 -4.951411 20.410794 -33.701841 7.030389 15.970307 19.282712 -16.861347 -15.547738 -23.642919 0.910367 16.406456 11.018490 -13.498450 -5.740480 -2.140270 0.110772 -2.673743 -44.857888 -13.813229 -1.592019 3.383718 -16.471177 -2.427720 -4.316738 2.739344 0.154010 0.499970 -0.789030 0.332550 -32.703539 27.265999 -1.240110 -18.661153 2.394743 -4.138703 -15.959286 -15.735942 -0.750564 4.164064 -0.371307 -0.727240 0.921030 0.695780 0.244000 
-0.378870 17.627200 0.396930 -9.559557 10.631425 -8.673504 -15.192262 13.457262 2.026874 15.520720 2.306851 -17.286832 -3.315405 7.811595 21.781889 -0.673613 5.775984 2.846402 -0.326590 -0.592070 -0.770110 18.187467 -11.225673 2.914602 -6.425596 1.674979 -2.434777 12.841396 -6.592822 13.845511 -0.098944 -5.117577 2.810595 0.050040 1.355150 0.005170 -3.512903 -0.722117 -7.467694 -0.905818 -3.742998 19.440686 -32.571262 7.526735 16.433249 18.709827 -15.608238 -14.736231 -22.471602 2.114680 19.508695 10.153430 -12.333470 -6.020340 -5.852645 -3.682613 -0.765717 -41.045475 -11.879396 -1.815534 3.354508 -15.535932 -2.313846 -4.307364 2.689093 0.222440 0.489210 -0.740890 0.304310 -28.427739 29.054370 -0.535480 -22.865211 6.303019 -6.727255 -18.999758 -11.697717 -1.073946 3.596378 -0.692049 -0.730220 0.906430 0.686100 0.188600 
-0.380200 17.584550 0.396610 -9.903003 10.241687 -8.336635 -15.216089 13.317775 2.104580 16.507742 2.749551 -18.707118 -3.652269 8.427219 23.276807 -0.644661 6.052058 2.704693 -0.274420 -0.558860 -0.702730 18.172129 -11.229062 2.942765 -7.001596 2.209222 -3.002221 14.084460 -6.823100 14.270162 -0.142101 -5.207088 2.757565 0.054750 1.317410 0.050750 -3.482037 -0.475682 -7.462521 -0.006759 -2.082926 17.985515 -30.542163 8.130736 16.427120 17.671961 -14.291877 -13.729523 -20.968421 3.183867 22.753849 9.684840 -11.628750 -5.662880 -9.107200 -6.786969 1.024311 -38.868886 -10.193762 -1.717494 2.791940 -14.606489 -2.146218 -4.298422 2.692452 0.245170 0.484840 -0.698590 0.308680 -23.631359 29.580562 0.465112 -25.754934 11.653977 -10.252584 -23.456025 -6.955728 -1.863097 3.147497 -1.103104 -0.698310 0.868700 0.653390 0.169480 
